<svg width="55" height="55" viewBox="0 0 55 55" fill="none" xmlns="http://www.w3.org/2000/svg">
<path d="M29.9138 20.9999L17 13.9999V35.9999L29.9138 42.9999V31.7391V20.9999Z" fill="url(#paint0_linear)"/>
<path d="M29.9138 20.9999L17 13.9999V35.9999L29.9138 42.9999V31.7391V20.9999Z" fill="url(#paint1_linear)"/>
<path d="M24.6198 20.9999L37.5335 13.9999V35.9999L24.6198 42.9999V31.7391V20.9999Z" fill="url(#paint2_linear)"/>
<path d="M24.6198 20.9999L37.5335 13.9999V35.9999L24.6198 42.9999V31.7391V20.9999Z" fill="url(#paint3_linear)"/>
<path d="M49.1754 24.2232C52.2216 23.7627 55.1244 25.8751 54.9617 28.9516C54.7064 33.7812 53.1793 38.4932 50.4893 42.5911C46.771 48.2555 41.0924 52.3477 34.5426 54.0829C27.9928 55.8182 21.0329 55.0742 14.9978 51.9938C8.96276 48.9134 4.27739 43.7133 1.84034 37.391C-0.59672 31.0687 -0.613884 24.0692 1.79214 17.735C4.19815 11.4008 8.85797 6.17781 14.8778 3.06782C20.8977 -0.0421696 27.8539 -0.820237 34.4121 0.882848C39.1567 2.11495 43.4513 4.58288 46.8822 7.99149C49.0678 10.1628 48.3339 13.6771 45.7668 15.3803V15.3803C43.1997 17.0836 39.7727 16.2759 37.3084 14.427C35.6191 13.1596 33.6862 12.2209 31.6079 11.6812C27.7103 10.6691 23.5762 11.1315 19.9986 12.9798C16.4209 14.8281 13.6515 17.9321 12.2216 21.6966C10.7917 25.461 10.8019 29.6209 12.2503 33.3783C13.6986 37.1357 16.4832 40.2261 20.0699 42.0568C23.6565 43.8876 27.7928 44.3297 31.6854 43.2984C35.578 42.2672 38.9529 39.8351 41.1627 36.4687C42.341 34.6738 43.1439 32.6805 43.5454 30.6072C44.1311 27.5826 46.1293 24.6837 49.1754 24.2232V24.2232Z" fill="url(#paint4_radial)"/>
<defs>
<linearGradient id="paint0_linear" x1="30" y1="42.9999" x2="23.1979" y2="12.6126" gradientUnits="userSpaceOnUse">
<stop stop-color="#DA5A2F"/>
<stop offset="1" stop-color="#32CBCB"/>
</linearGradient>
<linearGradient id="paint1_linear" x1="30" y1="42.9999" x2="23.1979" y2="12.6126" gradientUnits="userSpaceOnUse">
<stop stop-color="#DA5A2F"/>
<stop offset="1" stop-color="#32CBCB"/>
</linearGradient>
<linearGradient id="paint2_linear" x1="37.5335" y1="12.8695" x2="33.7565" y2="44.0603" gradientUnits="userSpaceOnUse">
<stop stop-color="#CC562D"/>
<stop offset="1" stop-color="#47CACA"/>
</linearGradient>
<linearGradient id="paint3_linear" x1="37.5335" y1="12.8695" x2="33.7565" y2="44.0603" gradientUnits="userSpaceOnUse">
<stop stop-color="#CC562D"/>
<stop offset="1" stop-color="#47CACA"/>
</linearGradient>
<radialGradient id="paint4_radial" cx="0" cy="0" r="1" gradientUnits="userSpaceOnUse" gradientTransform="translate(28.4629 28.0685) rotate(-29.6901) scale(46.8722)">
<stop stop-color="#E15E32"/>
<stop offset="1" stop-color="#47CACA"/>
</radialGradient>
</defs>
</svg>
